<svg xmlns:osb="http://www.openswatchbook.org/uri/2009/osb" xmlns="http://www.w3.org/2000/svg" viewBox="176 76 64 64" enable-background="new 176 76 48 48"><defs><linearGradient osb:paint="solid"><stop offset="0" stop-color="#fff"/></linearGradient><marker orient="auto" overflow="visible"><path d="M10 0l4-4-14 4 14 4-4-4z" fill-rule="evenodd" stroke="#000" stroke-width="NaN"/></marker></defs><linearGradient gradientUnits="userSpaceOnUse" x1="71.366" y1="132.875" x2="71.366" y2="121.375" gradientTransform="matrix(4.167 0 0 -4.167 -97.318 709.646)"><stop offset="0" stop-color="#d02df9"/><stop offset=".5" stop-color="#e73399"/><stop offset="1" stop-color="#ff963a"/></linearGradient><path d="M192.219 82.844c-.92 0-1.826.326-2.531 1.031l-5.813 5.813c-1.41 1.41-1.41 3.684 0 5.094l13.219 13.219-13.219 13.219c-1.41 1.41-1.41 3.684 0 5.094l5.813 5.813c1.41 1.41 3.684 1.41 5.094 0l13.219-13.219 13.219 13.219c1.41 1.41 3.684 1.41 5.094 0l5.813-5.813c1.41-1.41 1.41-3.684 0-5.094l-13.219-13.219 13.219-13.219c1.41-1.41 1.41-3.684 0-5.094l-5.813-5.813c-1.41-1.41-3.684-1.41-5.094 0l-13.219 13.219-13.219-13.219c-.705-.705-1.643-1.031-2.563-1.031z" fill="#fff"/></svg>