<svg xmlns:osb="http://www.openswatchbook.org/uri/2009/osb" xmlns="http://www.w3.org/2000/svg" viewBox="176 76 64 64" enable-background="new 176 76 48 48"><defs><linearGradient osb:paint="solid"><stop offset="0" stop-color="#fff"/></linearGradient><marker orient="auto" overflow="visible"><path d="M10 0l4-4-14 4 14 4-4-4z" fill-rule="evenodd" stroke="#000" stroke-width="NaN"/></marker></defs><linearGradient gradientUnits="userSpaceOnUse" x1="71.366" y1="132.875" x2="71.366" y2="121.375" gradientTransform="matrix(4.167 0 0 -4.167 -97.318 709.646)"><stop offset="0" stop-color="#d02df9"/><stop offset=".5" stop-color="#e73399"/><stop offset="1" stop-color="#ff963a"/></linearGradient><path d="M-12.4 24.3a23.9 23.9 0 1 1-47.8 0 23.9 23.9 0 1 1 47.8 0z" transform="matrix(1.339 0 0 1.339 256.603 75.464)" fill="#ff6b62" fill-rule="evenodd"/><g fill="#fff"><path d="M216.833 96.085c0 5.431-3.955 9.833-8.833 9.833-4.879 0-8.833-4.403-8.833-9.833 0-5.431 3.955-9.833 8.833-9.833 4.879 0 8.833 4.403 8.833 9.833z"/><path d="M201.313 105.117c-3.3.976-6.08 2.736-7.531 5.25-2.338 4.05-2.135 11.787 1.656 15.188 6.235 5.592 18.89 5.592 25.125 0 3.791-3.4 3.995-11.137 1.656-15.188-1.451-2.514-4.231-4.274-7.531-5.25-1.62 1.885-4.007 2.719-6.688 2.719-2.68 0-5.068-.834-6.688-2.719z"/></g><path d="M30.1 11.6a19.3 19.3 0 0 1 0 38.6v-19.3z" transform="matrix(-1.172 -1.172 1.172 -1.172 207.062 179.517)" opacity=".1" fill="#fff"/></svg>