<svg xmlns:osb="http://www.openswatchbook.org/uri/2009/osb" xmlns="http://www.w3.org/2000/svg" viewBox="176 76 64 64" enable-background="new 176 76 48 48"><defs><linearGradient osb:paint="solid"><stop offset="0" stop-color="#fff"/></linearGradient><marker orient="auto" overflow="visible"><path d="M10 0l4-4-14 4 14 4-4-4z" fill-rule="evenodd" stroke="#000" stroke-width="NaN"/></marker><filter width="1.5" height="1.5" x="-.25" y="-.25"><feGaussianBlur in="SourceAlpha" stdDeviation="1" result="blur"/><feColorMatrix result="bluralpha" values="1 0 0 0 0 0 1 0 0 0 0 0 1 0 0 0 0 0 0.2 0"/><feOffset in="bluralpha" dy="-1" result="offsetBlur"/><feMerge><feMergeNode in="offsetBlur"/><feMergeNode in="SourceGraphic"/></feMerge></filter><filter color-interpolation-filters="sRGB" width="1.5" height="1.5" x="-.25" y="-.25"><feGaussianBlur in="SourceAlpha" stdDeviation="1" result="blur"/><feColorMatrix result="bluralpha" values="1 0 0 0 0 0 1 0 0 0 0 0 1 0 0 0 0 0 0.2 0"/><feOffset in="bluralpha" dy="-1" result="offsetBlur"/><feMerge><feMergeNode in="offsetBlur"/><feMergeNode in="SourceGraphic"/></feMerge></filter><filter color-interpolation-filters="sRGB" width="1.5" height="1.5" x="-.25" y="-.25"><feGaussianBlur in="SourceAlpha" stdDeviation="1" result="blur"/><feColorMatrix result="bluralpha" values="1 0 0 0 0 0 1 0 0 0 0 0 1 0 0 0 0 0 0.2 0"/><feOffset in="bluralpha" dy="-1" result="offsetBlur"/><feMerge><feMergeNode in="offsetBlur"/><feMergeNode in="SourceGraphic"/></feMerge></filter><filter color-interpolation-filters="sRGB" width="1.5" height="1.5" x="-.25" y="-.25"><feGaussianBlur in="SourceAlpha" stdDeviation="1" result="blur"/><feColorMatrix result="bluralpha" values="1 0 0 0 0 0 1 0 0 0 0 0 1 0 0 0 0 0 0.2 0"/><feOffset in="bluralpha" dy="-1" result="offsetBlur"/><feMerge><feMergeNode in="offsetBlur"/><feMergeNode in="SourceGraphic"/></feMerge></filter><filter width="1.5" height="1.5" x="-.25" y="-.25"><feGaussianBlur in="SourceAlpha" stdDeviation="1" result="blur"/><feColorMatrix result="bluralpha" values="1 0 0 0 0 0 1 0 0 0 0 0 1 0 0 0 0 0 0.3 0"/><feOffset in="bluralpha" result="offsetBlur"/><feMerge><feMergeNode in="offsetBlur"/><feMergeNode in="SourceGraphic"/></feMerge></filter><filter width="1.5" height="1.5" x="-.25" y="-.25"><feGaussianBlur in="SourceAlpha" stdDeviation="1" result="blur"/><feColorMatrix result="bluralpha" values="1 0 0 0 0 0 1 0 0 0 0 0 1 0 0 0 0 0 0.1 0"/><feOffset in="bluralpha" dy="-1" result="offsetBlur"/><feMerge><feMergeNode in="offsetBlur"/><feMergeNode in="SourceGraphic"/></feMerge></filter><filter color-interpolation-filters="sRGB" width="1.5" height="1.5" x="-.25" y="-.25"><feGaussianBlur in="SourceAlpha" stdDeviation="1" result="blur"/><feColorMatrix result="bluralpha" values="1 0 0 0 0 0 1 0 0 0 0 0 1 0 0 0 0 0 0.1 0"/><feOffset in="bluralpha" dy="-1" result="offsetBlur"/><feMerge><feMergeNode in="offsetBlur"/><feMergeNode in="SourceGraphic"/></feMerge></filter><filter id="a" width="1.5" height="1.5" x="-.25" y="-.25"><feGaussianBlur in="SourceAlpha" stdDeviation="1" result="blur"/><feColorMatrix result="bluralpha" values="1 0 0 0 0 0 1 0 0 0 0 0 1 0 0 0 0 0 0.2 0"/><feOffset in="bluralpha" dy="-1" result="offsetBlur"/><feMerge><feMergeNode in="offsetBlur"/><feMergeNode in="SourceGraphic"/></feMerge></filter></defs><linearGradient gradientUnits="userSpaceOnUse" x1="71.366" y1="132.875" x2="71.366" y2="121.375" gradientTransform="matrix(4.167 0 0 -4.167 -97.318 709.646)"><stop offset="0" stop-color="#d02df9"/><stop offset=".5" stop-color="#e73399"/><stop offset="1" stop-color="#ff963a"/></linearGradient><path d="M-12.4 24.3a23.9 23.9 0 1 1-47.8 0 23.9 23.9 0 1 1 47.8 0z" transform="matrix(1.339 0 0 1.339 256.603 75.464)" fill="#b3b3b3" fill-rule="evenodd"/><path d="M30.1 11.6a19.3 19.3 0 0 1 0 38.6v-19.3z" transform="matrix(-1.172 -1.172 1.172 -1.172 207.062 179.517)" opacity=".1" fill="#fff"/><path d="M223.4 94.89v25.421c0 1.49-1.561 2.69-3.5 2.69h-5.95l-5.95 10-5.95-10h-5.95c-1.939 0-3.5-1.2-3.5-2.69v-25.421c0-1.49 1.561-2.69 3.5-2.69h23.8c1.939 0 3.5 1.2 3.5 2.69z" fill="#fff" filter="url(#a)"/><path d="M206.688 98.594v8.094h-8.094v2.625h8.094v8.094h2.625v-8.094h8.094v-2.625h-8.094v-8.094h-2.625z" fill="#e6e6e6"/></svg>