<svg xmlns:osb="http://www.openswatchbook.org/uri/2009/osb" xmlns="http://www.w3.org/2000/svg" viewBox="176 76 64 64" enable-background="new 176 76 48 48"><defs><linearGradient osb:paint="solid"><stop offset="0" stop-color="#fff"/></linearGradient><marker orient="auto" overflow="visible"><path d="M10 0l4-4-14 4 14 4-4-4z" fill-rule="evenodd" stroke="#000" stroke-width="NaN"/></marker></defs><linearGradient gradientUnits="userSpaceOnUse" x1="71.366" y1="132.875" x2="71.366" y2="121.375" gradientTransform="matrix(4.167 0 0 -4.167 -97.318 709.646)"><stop offset="0" stop-color="#d02df9"/><stop offset=".5" stop-color="#e73399"/><stop offset="1" stop-color="#ff963a"/></linearGradient><g><g><path d="M223.158 82.121l-36.614 36.614-4.471 15.168 15.168-4.471 36.614-36.614s-2.09-4.918-3.935-6.763c-1.844-1.844-6.763-3.935-6.763-3.935z" stroke="#fff" stroke-width="3" stroke-linecap="round" stroke-linejoin="round" stroke-miterlimit="3" fill="none"/><path d="M190.158 125.817c1.757 1.757 1.757 4.605 0 6.362-1.757 1.757-4.605 1.757-6.362 0-1.757-1.757-1.757-4.605 0-6.362 1.757-1.757 4.605-1.757 6.362 0z" fill="#fff"/></g><path d="M194.294 121.988l31.254-31.254" stroke="#fff" stroke-width="3" stroke-linecap="round" fill="none"/></g></svg>