<svg xmlns:osb="http://www.openswatchbook.org/uri/2009/osb" xmlns="http://www.w3.org/2000/svg" viewBox="176 76 64 64" enable-background="new 176 76 48 48"><defs><linearGradient osb:paint="solid"><stop offset="0" stop-color="#fff"/></linearGradient><marker orient="auto" overflow="visible"><path d="M10 0l4-4-14 4 14 4-4-4z" fill-rule="evenodd" stroke="#000" stroke-width="NaN"/></marker></defs><linearGradient gradientUnits="userSpaceOnUse" x1="71.366" y1="132.875" x2="71.366" y2="121.375" gradientTransform="matrix(4.167 0 0 -4.167 -97.318 709.646)"><stop offset="0" stop-color="#d02df9"/><stop offset=".5" stop-color="#e73399"/><stop offset="1" stop-color="#ff963a"/></linearGradient><path style="text-indent:0;text-align:start;line-height:normal;text-transform:none;block-progression:tb;-inkscape-font-specification:Sans" d="M200.907 132.771c-.855.855-1.848 1.459-2.873 1.724-1.025.264-2.26.171-3.116-.685l-12.728-12.728c-.856-.856-.949-2.091-.685-3.116.264-1.025.869-2.018 1.724-2.873l15.932-15.932 15.932-15.932c.855-.855 1.848-1.459 2.873-1.724 1.025-.264 2.26-.171 3.116.685l12.728 12.728c.856.856.949 2.091.685 3.116-.264 1.025-.869 2.018-1.724 2.873l-15.932 15.932zm13.987-17.877l15.932-15.932c.547-.547.884-1.183.994-1.613.111-.43.016-.514.044-.486l-12.728-12.728c.028.028-.057-.067-.486.044-.43.111-1.066.447-1.613.994l-15.932 15.932z" color="#000" fill="#fff" overflow="visible" enable-background="accumulate" font-family="Sans"/></svg>