<svg xmlns:osb="http://www.openswatchbook.org/uri/2009/osb" xmlns="http://www.w3.org/2000/svg" viewBox="176 76 64 64" enable-background="new 176 76 48 48"><defs><linearGradient osb:paint="solid"><stop offset="0" stop-color="#fff"/></linearGradient><marker orient="auto" overflow="visible"><path d="M10 0l4-4-14 4 14 4-4-4z" fill-rule="evenodd" stroke="#000" stroke-width="NaN"/></marker></defs><linearGradient gradientUnits="userSpaceOnUse" x1="71.366" y1="132.875" x2="71.366" y2="121.375" gradientTransform="matrix(4.167 0 0 -4.167 -97.318 709.646)"><stop offset="0" stop-color="#d02df9"/><stop offset=".5" stop-color="#e73399"/><stop offset="1" stop-color="#ff963a"/></linearGradient><path d="M207.998 76c-17.67 0-31.998 14.689-31.998 32.813 0 14.494 9.168 26.79 21.885 31.131 1.601.3 2.184-.713 2.184-1.583 0-.777-.028-2.842-.043-5.579-8.901 1.982-10.779-4.399-10.779-4.399-1.456-3.791-3.554-4.798-3.554-4.798-2.905-2.036.22-1.996.22-1.996 3.212.234 4.901 3.382 4.901 3.382 2.854 5.013 7.488 3.565 9.313 2.727.291-2.121 1.116-3.567 2.031-4.387-7.105-.828-14.576-3.644-14.576-16.216 0-3.581 1.247-6.51 3.294-8.804-.33-.83-1.428-4.165.312-8.683 0 0 2.687-.882 8.8 3.364 2.552-.729 5.29-1.092 8.011-1.106 2.717.015 5.455.377 8.011 1.106 6.109-4.246 8.791-3.364 8.791-3.364 1.746 4.518.648 7.853.318 8.683 2.051 2.294 3.29 5.223 3.29 8.804 0 12.605-7.482 15.378-14.611 16.19 1.149 1.013 2.173 3.015 2.173 6.077 0 4.385-.039 7.924-.039 8.999 0 .878.576 1.899 2.2 1.579 12.704-4.349 21.866-16.637 21.866-31.127 0-18.124-14.328-32.813-32.002-32.813" fill="#323131" fill-rule="evenodd"/></svg>