<svg xmlns:osb="http://www.openswatchbook.org/uri/2009/osb" xmlns="http://www.w3.org/2000/svg" viewBox="176 76 64 64" enable-background="new 176 76 48 48"><defs><linearGradient osb:paint="solid"><stop offset="0" stop-color="#fff"/></linearGradient><marker orient="auto" overflow="visible"><path d="M10 0l4-4-14 4 14 4-4-4z" fill-rule="evenodd" stroke="#000" stroke-width="NaN"/></marker></defs><linearGradient gradientUnits="userSpaceOnUse" x1="71.366" y1="132.875" x2="71.366" y2="121.375" gradientTransform="matrix(4.167 0 0 -4.167 -97.318 709.646)"><stop offset="0" stop-color="#d02df9"/><stop offset=".5" stop-color="#e73399"/><stop offset="1" stop-color="#ff963a"/></linearGradient><path d="M207.999 88.141c-11.244 0-20.361 9.116-20.361 20.364 0 8.995 5.834 16.626 13.926 19.32 1.019.186 1.39-.443 1.39-.983l-.028-3.462c-5.664 1.23-6.859-2.73-6.859-2.73-.926-2.353-2.261-2.978-2.261-2.978-1.849-1.264.14-1.239.14-1.239 2.044.145 3.119 2.099 3.119 2.099 1.816 3.111 4.765 2.212 5.926 1.692.185-1.316.71-2.214 1.292-2.723-4.521-.514-9.275-2.261-9.275-10.064 0-2.223.794-4.04 2.096-5.464-.21-.515-.909-2.585.199-5.389 0 0 1.71-.547 5.6 2.087 1.624-.453 3.366-.677 5.098-.686 1.729.009 3.471.234 5.098.686 3.888-2.635 5.594-2.087 5.594-2.087 1.111 2.804.412 4.874.203 5.389 1.305 1.424 2.094 3.241 2.094 5.464 0 7.822-4.761 9.544-9.297 10.047.731.629 1.383 1.871 1.383 3.771 0 2.721-.025 4.918-.025 5.585 0 .545.366 1.179 1.4.98 8.084-2.699 13.914-10.325 13.914-19.317 0-11.248-9.117-20.364-20.364-20.364" fill="#323131" fill-rule="evenodd"/></svg>