<svg xmlns:osb="http://www.openswatchbook.org/uri/2009/osb" xmlns="http://www.w3.org/2000/svg" viewBox="176 76 600 150" enable-background="new 176 76 48 48"><defs><linearGradient osb:paint="solid"><stop offset="0" stop-color="#fff"/></linearGradient><marker orient="auto" overflow="visible"><path d="M10 0l4-4-14 4 14 4-4-4z" fill-rule="evenodd" stroke="#000" stroke-width="NaN"/></marker><filter width="1.5" height="1.5" x="-.25" y="-.25" color-interpolation-filters="sRGB"><feGaussianBlur in="SourceAlpha" stdDeviation="1" result="blur"/><feColorMatrix result="bluralpha" values="1 0 0 0 0 0 1 0 0 0 0 0 1 0 0 0 0 0 0.1 0"/><feOffset in="bluralpha" dy="-1" result="offsetBlur"/><feMerge><feMergeNode in="offsetBlur"/><feMergeNode in="SourceGraphic"/></feMerge></filter></defs><linearGradient gradientUnits="userSpaceOnUse" x1="71.366" y1="132.875" x2="71.366" y2="121.375" gradientTransform="matrix(4.167 0 0 -4.167 -97.318 709.646)"><stop offset="0" stop-color="#d02df9"/><stop offset=".5" stop-color="#e73399"/><stop offset="1" stop-color="#ff963a"/></linearGradient><path d="M274.664 165.305l5.586-15.894 5.586 15.894z" fill="#90df77"/><rect width="1.586" height="9.008" x="279.457" y="162.47" ry=".793" fill="#c1755c"/><path d="M204.414 198.106l7.836-22.297 7.836 22.297z" fill="#acff93"/><path d="M176 226l95-61 15.5 7 31.5-23 7 2.5 51-38.5 61.5 33 5.5-3 54.5 31 7-3 91.125 55z" fill="#6fd05a"/><rect width="2.225" height="12.636" x="211.138" y="194.129" ry="1.112" fill="#c1755c"/><path d="M242.664 193.161l12.854-29.139 12.854 29.139z" fill="#acff93"/><rect width="3.65" height="16.514" x="253.694" y="187.964" ry="1.454" fill="#c1755c"/><path d="M297.5 101.5h31.5v31.5h-7.875c-2.625 0-7.875 8-7.875 8s-5.25-8-7.875-8h-7.875v-31.5z" fill="#e87c7a"/><rect width="142.5" height="98" x="621.5" y="88" rx="5" ry="5" fill="#e87c7a" stroke="#666" stroke-width="10" stroke-linecap="round" stroke-linejoin="round"/><path d="M715 140.656c-2.862 0-5.156 2.23-5.156 5v9.844c0 .205.007.395.031.594h-1.094c-2.852-.364-6.075 1.401-6.344 4.469-.063 6.537-.013 13.087-.031 19.625-.401 2.872 1.851 5.716 4.781 5.875 9.568.06 19.149.014 28.719.031 2.852.364 6.044-1.432 6.313-4.5.063-6.836.013-13.663.031-20.5.046-2.605-2.247-4.816-4.781-5-4.784-.03-9.559-.004-14.344 0h-3c.025-.198.031-.389.031-.594v-9.844c0-2.77-2.294-5-5.156-5z" fill="#ffd8b9"/><path d="M709.333 156v16" stroke="#dea67b" fill="none"/><path d="M604.156 117.344c-2.527.255-4.5 2.403-4.5 5v30.5c0 2.77 2.23 5 5 5h11.344l.469-.031v-29.813h7.686999999999999c2.77 0 5-2.23 5-5v-.656c0-2.77-2.23-5-5-5h-19.5c-.173 0-.332-.017-.5 0z" fill="#ffd8b9"/><path d="M626.5 93h132.5l-132.5 88v-88z" opacity=".053" fill="#fff"/></svg>