<svg xmlns:osb="http://www.openswatchbook.org/uri/2009/osb" xmlns="http://www.w3.org/2000/svg" viewBox="176 76 600 150" enable-background="new 176 76 48 48"><defs><marker orient="auto" overflow="visible"><path d="M4.616 0l-6.92 4v-8l6.92 4z" fill-rule="evenodd" stroke="#000" stroke-width="NaN"/></marker><marker orient="auto" overflow="visible"><path d="M3.92 0c0 2.208-1.792 4-4 4s-4-1.792-4-4 1.792-4 4-4 4 1.792 4 4z" fill-rule="evenodd" stroke="#000" stroke-width="NaN"/></marker><marker orient="auto" overflow="visible"><path d="M10.69 4.437l-12.018-4.419 12.018-4.419c-1.92 2.609-1.909 6.179 0 8.839z" font-size="12" fill-rule="evenodd"/></marker><linearGradient osb:paint="solid"><stop offset="0" stop-color="#fff"/></linearGradient><marker orient="auto" overflow="visible"><path d="M10 0l4-4-14 4 14 4-4-4z" fill-rule="evenodd" stroke="#000" stroke-width="NaN"/></marker><filter width="1.5" height="1.5" x="-.25" y="-.25" color-interpolation-filters="sRGB"><feGaussianBlur in="SourceAlpha" stdDeviation="1" result="blur"/><feColorMatrix result="bluralpha" values="1 0 0 0 0 0 1 0 0 0 0 0 1 0 0 0 0 0 0.1 0"/><feOffset in="bluralpha" dy="-1" result="offsetBlur"/><feMerge><feMergeNode in="offsetBlur"/><feMergeNode in="SourceGraphic"/></feMerge></filter></defs><linearGradient gradientUnits="userSpaceOnUse" x1="71.366" y1="132.875" x2="71.366" y2="121.375" gradientTransform="matrix(4.167 0 0 -4.167 -97.318 709.646)"><stop offset="0" stop-color="#d02df9"/><stop offset=".5" stop-color="#e73399"/><stop offset="1" stop-color="#ff963a"/></linearGradient><path d="M406.362 124.519c-2.998.157-5.357 2.595-5.357 5.633 0 3.14 2.514 5.676 5.655 5.676h16.326c3.14 0 5.676-2.535 5.676-5.676 0-3.035-2.363-5.472-5.357-5.633-.933-2.786-3.545-6.143-8.471-6.143s-7.538 3.358-8.471 6.143z" fill="#fff"/><rect width="1.665" height="7.534" x="278.578" y="163.094" ry=".663" fill="#c1755c"/><path d="M279.715 163.111v7.499c.303-.062.527-.32.527-.642v-6.216c0-.321-.225-.58-.527-.642z" opacity=".602" fill="#b46c54"/><path d="M273.546 165.465l5.864-13.293 5.864 13.293z" fill="#a1db8f"/><path d="M283.468 165.469l-4.058-13.297 5.864 13.293z" opacity=".221" fill="#7aa06e"/><path d="M176 226l95-61 15.5 7 31.5-23 7 2.5 51-38.5 61.5 33 5.5-3 54.5 31 7-3 91.125 55z" fill="#6fd05a"/><path d="M291.8 102.567h31.5v31.5h-7.875c-2.625 0-7.875 8-7.875 8s-5.25-8-7.875-8h-7.875v-31.5z" fill="#ff6872"/><rect width="142.5" height="98" x="621.5" y="88" rx="5" ry="5" fill="#ff6872" stroke="#666" stroke-width="10" stroke-linecap="round" stroke-linejoin="round"/><path d="M379.5 56.75a11.75 11.75 0 1 1-23.5 0 11.75 11.75 0 1 1 23.5 0z" transform="matrix(.681 0 0 .681 464.617 104.862)" opacity=".292" fill="#fff"/><path d="M715 140.656c-2.862 0-5.156 2.23-5.156 5v9.844c0 .205.007.395.031.594h-1.094c-2.852-.364-6.075 1.401-6.344 4.469-.063 6.537-.013 13.087-.031 19.625-.401 2.872 1.851 5.716 4.781 5.875 9.568.06 19.149.014 28.719.031 2.852.364 6.044-1.432 6.313-4.5.063-6.836.013-13.663.031-20.5.046-2.605-2.247-4.816-4.781-5-4.784-.03-9.559-.004-14.344 0h-3c.025-.198.031-.389.031-.594v-9.844c0-2.77-2.294-5-5.156-5z" fill="#ffd8b9"/><path d="M709.333 156v16" stroke="#dea67b" fill="none"/><path d="M604.156 117.344c-2.527.255-4.5 2.403-4.5 5v30.5c0 2.77 2.23 5 5 5h11.344l.469-.031v-29.813h7.686999999999999c2.77 0 5-2.23 5-5v-.656c0-2.77-2.23-5-5-5h-19.5c-.173 0-.332-.017-.5 0z" fill="#ffd8b9"/><path d="M626.5 93h132.5l-132.5 88v-88z" opacity=".053" fill="#fff"/><path d="M376 113l-32.594 24.594 9.805 6 9.805-6 9.805 6 9.805-6 9.805 6 9.805-6 9.805 6 9.805-6z" opacity=".204" fill="#fff"/><path d="M214.552 91.042c-4.407.231-7.875 3.814-7.875 8.281 0 4.617 3.696 8.344 8.313 8.344h24c4.617 0 8.344-3.727 8.344-8.344 0-4.462-3.474-8.043-7.875-8.281-1.371-4.096-5.212-9.031-12.453-9.031s-11.082 4.936-12.454 9.031z" fill="#fff"/><path d="M295.55 109.5h24" stroke="#fff" stroke-linecap="round" fill="none"/><path d="M295.55 115.5h24" stroke="#fff" stroke-linecap="round" fill="none"/><path d="M295.55 121.5h24" stroke="#fff" stroke-linecap="round" fill="none"/><path d="M295.55 127.5h24" stroke="#fff" stroke-linecap="round" fill="none"/><g stroke="#fff" stroke-linecap="round" fill="none"><path d="M632.642 114.976h35.382"/><path d="M632.642 120.77h35.382"/><path d="M632.642 126.564h35.382"/><path d="M632.642 132.358h35.382"/></g><rect width="132.533" height="11.667" x="626.5" y="93" opacity=".102" fill="#4e4e4e"/><g stroke="#fff" stroke-linecap="round" fill="none"><path d="M675.059 114.976h35.382"/><path d="M675.059 120.77h35.382"/><path d="M675.059 126.564h35.382"/><path d="M675.059 132.358h35.382"/></g><g stroke="#fff" stroke-linecap="round" fill="none"><path d="M716.642 114.976h35.382"/><path d="M716.642 120.77h35.382"/><path d="M716.642 126.564h35.382"/><path d="M716.642 132.358h35.382"/></g><path d="M435.7 226l-59.7-113 61.5 33 5.5-3 54.5 31 7-3 91.125 55z" opacity=".133" fill="#6cb75c"/><path d="M236.25 226h42.75s-22.694-13.937-18.232-22.5c8.773-16.834 49.762-3.915 57.482-18.75 3.704-7.118-10.667-16.75-10.667-16.75l-4 .083s15.456 11.343 7.417 15.667c-11.534 6.203-48.929-4.67-69.25 13.25-15.765 13.903-5.5 29-5.5 29z" fill="#676767"/><path d="M255.167 225.333s-13.389-14.451-3.167-25.918c16.003-17.952 63.784-3.511 64-18.497.059-4.083-8.333-11.251-8.333-11.251" opacity=".633" stroke="#fff" stroke-width=".7" stroke-linecap="square" stroke-dasharray="2.1,2.1" fill="none"/><g transform="translate(7.25)"><path d="M261.518 203.5c0 1.602-2.686 2.9-6 2.9s-6-1.298-6-2.9c0-1.602 2.686-2.9 6-2.9s6 1.298 6 2.9z" opacity=".066"/><rect ry="1.454" y="187.964" x="253.694" height="16.514" width="3.65" fill="#c1755c"/><path d="M256.188 188v16.438c.664-.135 1.156-.702 1.156-1.406v-13.625c0-.705-.493-1.271-1.156-1.406z" opacity=".602" fill="#b46c54"/><path d="M242.664 193.161l12.854-29.139 12.854 29.139z" fill="#acff93"/><path d="M264.414 193.17l-8.896-29.148 12.854 29.139z" opacity=".27" fill="#72d253"/></g><path d="M144.4 94.6a12.6 2.6 0 1 1-25.2 0 12.6 2.6 0 1 1 25.2 0z" transform="translate(175.7 73.4)" opacity=".133"/><rect width="20" height="13" x="297.5" y="155.4" fill="#bb6d3c"/><rect width="3.6" height="4.696" x="311.6" y="149.704" fill="#a35a2d"/><path d="M320.691 156h-26.382l13.191-7.447z" fill="#b26536"/><rect width="4" height="6" x="303.7" y="162.4" opacity=".743" fill="#9e5c1a"/><rect width="1.8" height="13" x="315.7" y="155.4" fill="#b36b3e"/><path d="M320.691 156h-4.982l-8.209-7.447z" opacity=".513" fill="#a46035"/><path d="M112.2 124.9a5.2 4.3 0 1 1-10.4 0 5.2 4.3 0 1 1 10.4 0z" transform="matrix(.956 0 0 .553 106.069 142.081)" opacity=".066"/><rect width="3.025" height="13.553" x="206.888" y="198.459" ry="1.193" fill="#c1755c"/><path d="M208.955 198.489v13.49c.55-.111.958-.576.958-1.154v-11.182c0-.578-.408-1.043-.958-1.154z" opacity=".602" fill="#b46c54"/><path d="M197.746 202.725l10.654-23.914 10.654 23.914z" fill="#aaef95"/><path d="M215.773 202.731l-7.373-23.92 10.654 23.914z" opacity=".27" fill="#72d253"/></svg>