<?xml version="1.0" encoding="UTF-8" standalone="no"?>
<svg
   xmlns:osb="http://www.openswatchbook.org/uri/2009/osb"
   xmlns:dc="http://purl.org/dc/elements/1.1/"
   xmlns:cc="http://creativecommons.org/ns#"
   xmlns:rdf="http://www.w3.org/1999/02/22-rdf-syntax-ns#"
   xmlns:svg="http://www.w3.org/2000/svg"
   xmlns="http://www.w3.org/2000/svg"
   xmlns:sodipodi="http://sodipodi.sourceforge.net/DTD/sodipodi-0.dtd"
   xmlns:inkscape="http://www.inkscape.org/namespaces/inkscape"
   version="1.1"
   id="Icon"
   x="0px"
   y="0px"
   viewBox="176 76 64 64"
   enable-background="new 176 76 48 48"
   xml:space="preserve"
   inkscape:version="0.48.2 r9819"
   width="100%"
   height="100%"
   sodipodi:docname="identification.svg"><metadata
   id="metadata28"><rdf:RDF><cc:Work
       rdf:about=""><dc:format>image/svg+xml</dc:format><dc:type
         rdf:resource="http://purl.org/dc/dcmitype/StillImage" /></cc:Work></rdf:RDF></metadata><defs
   id="defs26"><linearGradient
     id="linearGradient6288"
     osb:paint="solid"><stop
       style="stop-color:#ffffff;stop-opacity:1;"
       offset="0"
       id="stop6290" /></linearGradient><marker
     inkscape:stockid="Arrow1Lstart"
     orient="auto"
     refY="0"
     refX="0"
     id="Arrow1Lstart"
     style="overflow:visible"><path
       id="path3789"
       d="M 0,0 5,-5 -12.5,0 5,5 0,0 z"
       style="fill-rule:evenodd;stroke:#000000;stroke-width:1pt;marker-start:none"
       transform="matrix(0.8,0,0,0.8,10,0)"
       inkscape:connector-curvature="0" /></marker></defs><sodipodi:namedview
   pagecolor="#ffffff"
   bordercolor="#666666"
   borderopacity="1"
   objecttolerance="10"
   gridtolerance="10"
   guidetolerance="10"
   inkscape:pageopacity="0"
   inkscape:pageshadow="2"
   inkscape:window-width="1440"
   inkscape:window-height="871"
   id="namedview24"
   showgrid="false"
   inkscape:zoom="3"
   inkscape:cx="-28.5"
   inkscape:cy="27.04321"
   inkscape:window-x="-9"
   inkscape:window-y="-9"
   inkscape:window-maximized="1"
   inkscape:current-layer="Icon"
   inkscape:snap-center="true"
   inkscape:snap-bbox="true"
   inkscape:snap-global="true"
   inkscape:showpageshadow="false"
   showborder="true"
   showguides="true"
   inkscape:guide-bbox="true" />
<linearGradient
   id="SVGID_1_"
   gradientUnits="userSpaceOnUse"
   x1="71.366203"
   y1="132.875"
   x2="71.366203"
   y2="121.375"
   gradientTransform="matrix(4.1667,0,0,-4.1667,-97.3177,709.646)">
	<stop
   offset="0"
   style="stop-color:#d02df9;stop-opacity:1;"
   id="stop4" /><stop
   id="stop6312"
   style="stop-color:#e73399;stop-opacity:1;"
   offset="0.5" />
	<stop
   offset="1"
   style="stop-color:#ff963a;stop-opacity:1;"
   id="stop6" />
</linearGradient>

<g
   id="W0qAS3_2_"
   transform="translate(0,16)">
	<g
   id="g11">
		<g
   id="g13">
			
		</g>
	</g>
</g>

<path
   sodipodi:type="arc"
   style="opacity:0.80000000000000004;fill:#ff370f;fill-opacity:1;fill-rule:evenodd;stroke:none"
   id="path3792"
   sodipodi:cx="-36.299999"
   sodipodi:cy="24.299999"
   sodipodi:rx="23.9"
   sodipodi:ry="23.9"
   d="m -12.4,24.299999 a 23.9,23.9 0 1 1 -47.799999,0 23.9,23.9 0 1 1 47.799999,0 z"
   transform="matrix(1.3389122,0,0,1.3389122,256.60251,75.464436)" /><g
   id="g3894"
   transform="translate(0,-1.0635404)"><path
     transform="translate(177.6,74.333331)"
     d="m 36.2,24 c 0,3.203252 -2.596749,5.8 -5.8,5.8 -3.203252,0 -5.800001,-2.596748 -5.800001,-5.8 0,-3.203252 2.596749,-5.8 5.800001,-5.8 3.203251,0 5.8,2.596748 5.8,5.8 z"
     sodipodi:ry="5.8000002"
     sodipodi:rx="5.8000002"
     sodipodi:cy="24"
     sodipodi:cx="30.4"
     id="path3805"
     style="fill:#ffffff;fill-opacity:1;fill-rule:evenodd;stroke:none"
     sodipodi:type="arc" /><path
     inkscape:connector-curvature="0"
     id="path3074"
     d="m 202.29375,107.28125 c -4.44581,2.54048 -8.12541,7.88662 -7.25,12.3125 0.39583,2.00125 2.07853,3.32883 4.125,4.28125 -0.0479,-0.40107 -0.19548,-0.78408 -0.21875,-1.1875 -0.0844,-1.4625 -0.0195,-2.9375 0.15625,-4.375 0.17578,-1.4375 0.44375,-2.83125 0.78125,-4.15625 0.675,-2.65 1.58125,-4.98125 2.3125,-6.65625 0.0584,-0.13379 0.0377,-0.0936 0.0937,-0.21875 z"
     style="fill:#ffffff;fill-opacity:1;fill-rule:evenodd;stroke:none" /><path
     inkscape:connector-curvature="0"
     id="path3077"
     d="m 212.90625,107.28125 c -1.59875,-0.91395 -3.28031,-1.5 -4.90625,-1.5 -1.62594,0 -3.30685,0.58605 -4.90625,1.5 -0.056,0.12516 -0.0353,0.085 -0.0937,0.21875 -0.73125,1.675 -1.6375,4.00625 -2.3125,6.65625 -0.3375,1.325 -0.60547,2.71875 -0.78125,4.15625 -0.17578,1.4375 -0.24063,2.9125 -0.15625,4.375 0.0233,0.40342 0.1709,0.78643 0.21875,1.1875 2.48845,1.15811 5.55063,1.71875 8.03125,1.71875 2.48062,0 5.54449,-0.56064 8.03125,-1.71875 0.0479,-0.40107 0.19548,-0.78408 0.21875,-1.1875 0.0844,-1.4625 0.0195,-2.9375 -0.15625,-4.375 -0.17578,-1.4375 -0.44375,-2.83125 -0.78125,-4.15625 -0.675,-2.65 -1.58125,-4.98125 -2.3125,-6.65625 -0.0584,-0.13379 -0.0377,-0.0936 -0.0937,-0.21875 z"
     style="fill:#ffffff;fill-opacity:1;fill-rule:evenodd;stroke:none" /><path
     inkscape:connector-curvature="0"
     id="path3807"
     d="m 213.70625,107.28125 c 0.056,0.12516 0.0353,0.085 0.0937,0.21875 0.73125,1.675 1.6375,4.00625 2.3125,6.65625 0.3375,1.325 0.60547,2.71875 0.78125,4.15625 0.17578,1.4375 0.24062,2.9125 0.15625,4.375 -0.0233,0.40342 -0.1709,0.78643 -0.21875,1.1875 2.04508,-0.95242 3.72916,-2.28 4.125,-4.28125 0.87541,-4.42588 -2.80597,-9.77202 -7.25,-12.3125 z"
     style="fill:#ffffff;fill-opacity:1;fill-rule:evenodd;stroke:none" /></g></svg>