<svg xmlns:osb="http://www.openswatchbook.org/uri/2009/osb" xmlns="http://www.w3.org/2000/svg" xmlns:xlink="http://www.w3.org/1999/xlink" viewBox="176 76 128 128" enable-background="new 176 76 48 48"><defs><linearGradient id="a"><stop offset="0" stop-color="#22f0ff"/><stop offset="1" stop-color="#fff" stop-opacity="0"/></linearGradient><linearGradient osb:paint="solid"><stop offset="0" stop-color="#fff"/></linearGradient><marker orient="auto" overflow="visible"><path d="M10 0l4-4-14 4 14 4-4-4z" fill-rule="evenodd" stroke="#000" stroke-width="NaN"/></marker><linearGradient xlink:href="#a" x1="176" y1="152" x2="304" y2="152" gradientUnits="userSpaceOnUse"/><linearGradient xlink:href="#a" x1="237.4" y1="83.5" x2="237.4" y2="220.506" gradientUnits="userSpaceOnUse"/><filter width="1.5" height="1.5" x="-.25" y="-.25"><feGaussianBlur in="SourceAlpha" stdDeviation="1" result="blur"/><feColorMatrix result="bluralpha" values="1 0 0 0 0 0 1 0 0 0 0 0 1 0 0 0 0 0 0.1 0"/><feOffset in="bluralpha" dx="1" dy="1" result="offsetBlur"/><feMerge><feMergeNode in="offsetBlur"/><feMergeNode in="SourceGraphic"/></feMerge></filter></defs><linearGradient gradientUnits="userSpaceOnUse" x1="71.366" y1="132.875" x2="71.366" y2="121.375" gradientTransform="matrix(4.167 0 0 -4.167 -97.318 709.646)"><stop offset="0" stop-color="#d02df9"/><stop offset=".5" stop-color="#e73399"/><stop offset="1" stop-color="#ff963a"/></linearGradient><text y="171.872" x="212.485" style="line-height:125%;-inkscape-font-specification:Roboto Slab" font-size="40" letter-spacing="0" word-spacing="0" font-family="Roboto Slab"/><path d="M213.384 113.727c-.979.979-1.48 2.28-1.48 3.558s.501 2.534 1.48 3.513l19.202 19.202-19.202 19.202c-.979.979-1.48 2.235-1.48 3.513s.501 2.578 1.48 3.558l.376.331c1.959 1.959 5.09 1.981 7.049.022l19.202-19.202 19.202 19.202c.979.979 2.235 1.48 3.513 1.48s2.578-.501 3.558-1.48l.331-.376c1.959-1.959 1.981-5.09.022-7.049l-19.202-19.202 19.202-19.202c1.959-1.959 1.937-5.09-.022-7.049l-.331-.376c-.979-.979-2.28-1.48-3.558-1.48s-2.534.501-3.513 1.48l-19.202 19.202-19.202-19.202c-1.959-1.959-5.09-1.937-7.049.022l-.376.331z" fill="#fff"/></svg>