<svg xmlns:osb="http://www.openswatchbook.org/uri/2009/osb" xmlns="http://www.w3.org/2000/svg" xmlns:xlink="http://www.w3.org/1999/xlink" viewBox="176 76 128 128" enable-background="new 176 76 48 48"><defs><linearGradient id="a"><stop offset="0" stop-color="#22f0ff"/><stop offset="1" stop-color="#fff" stop-opacity="0"/></linearGradient><linearGradient osb:paint="solid"><stop offset="0" stop-color="#fff"/></linearGradient><marker orient="auto" overflow="visible"><path d="M10 0l4-4-14 4 14 4-4-4z" fill-rule="evenodd" stroke="#000" stroke-width="NaN"/></marker><linearGradient xlink:href="#a" x1="176" y1="152" x2="304" y2="152" gradientUnits="userSpaceOnUse"/><linearGradient xlink:href="#a" x1="237.4" y1="83.5" x2="237.4" y2="220.506" gradientUnits="userSpaceOnUse"/><filter width="1.5" height="1.5" x="-.25" y="-.25"><feGaussianBlur in="SourceAlpha" stdDeviation="1" result="blur"/><feColorMatrix result="bluralpha" values="1 0 0 0 0 0 1 0 0 0 0 0 1 0 0 0 0 0 0.1 0"/><feOffset in="bluralpha" dx="1" dy="1" result="offsetBlur"/><feMerge><feMergeNode in="offsetBlur"/><feMergeNode in="SourceGraphic"/></feMerge></filter></defs><linearGradient gradientUnits="userSpaceOnUse" x1="71.366" y1="132.875" x2="71.366" y2="121.375" gradientTransform="matrix(4.167 0 0 -4.167 -97.318 709.646)"><stop offset="0" stop-color="#d02df9"/><stop offset=".5" stop-color="#e73399"/><stop offset="1" stop-color="#ff963a"/></linearGradient><text y="171.872" x="212.485" style="line-height:125%;-inkscape-font-specification:Roboto Slab" font-size="40" letter-spacing="0" word-spacing="0" font-family="Roboto Slab"/><path d="M269.344 117.219c-1.278 0-2.552.489-3.531 1.469l-31.375 31.375-20.25-20.219c-1.959-1.959-5.104-1.959-7.063 0l-.344.344c-1.959 1.959-1.959 5.104 0 7.063l23.156 23.156c.245.245.504.473.781.656l.031.031.219.219c1.959 1.959 5.135 1.959 7.094 0l35.156-35.188c1.959-1.959 1.959-5.104 0-7.063l-.344-.375c-.979-.979-2.253-1.469-3.531-1.469z" fill="#fff"/></svg>