<svg xmlns:osb="http://www.openswatchbook.org/uri/2009/osb" xmlns="http://www.w3.org/2000/svg" xmlns:xlink="http://www.w3.org/1999/xlink" viewBox="176 76 128 128" enable-background="new 176 76 48 48"><defs><linearGradient id="a"><stop offset="0" stop-color="#22f0ff"/><stop offset="1" stop-color="#fff" stop-opacity="0"/></linearGradient><linearGradient osb:paint="solid"><stop offset="0" stop-color="#fff"/></linearGradient><marker orient="auto" overflow="visible"><path d="M10 0l4-4-14 4 14 4-4-4z" fill-rule="evenodd" stroke="#000" stroke-width="NaN"/></marker><linearGradient xlink:href="#a" x1="176" y1="152" x2="304" y2="152" gradientUnits="userSpaceOnUse"/><linearGradient xlink:href="#a" x1="237.4" y1="83.5" x2="237.4" y2="220.506" gradientUnits="userSpaceOnUse"/><filter width="1.5" height="1.5" x="-.25" y="-.25"><feGaussianBlur in="SourceAlpha" stdDeviation="1" result="blur"/><feColorMatrix result="bluralpha" values="1 0 0 0 0 0 1 0 0 0 0 0 1 0 0 0 0 0 0.1 0"/><feOffset in="bluralpha" dx="1" dy="1" result="offsetBlur"/><feMerge><feMergeNode in="offsetBlur"/><feMergeNode in="SourceGraphic"/></feMerge></filter></defs><linearGradient gradientUnits="userSpaceOnUse" x1="71.366" y1="132.875" x2="71.366" y2="121.375" gradientTransform="matrix(4.167 0 0 -4.167 -97.318 709.646)"><stop offset="0" stop-color="#d02df9"/><stop offset=".5" stop-color="#e73399"/><stop offset="1" stop-color="#ff963a"/></linearGradient><text y="171.872" x="212.485" style="line-height:125%;-inkscape-font-specification:Roboto Slab" font-size="40" letter-spacing="0" word-spacing="0" font-family="Roboto Slab"/><path d="M240 78.5c-16.434 0-29.757 16.698-29.757 37.295 0 13.65 5.865 25.578 14.595 32.078-25.164 6.231-44.189 27.589-46.338 53.627h123c-2.149-26.039-21.174-47.397-46.338-53.627 8.73-6.5 14.595-18.428 14.595-32.078 0-20.598-13.323-37.295-29.757-37.295z" stroke="#ff687c" stroke-width="5" stroke-linecap="round" stroke-linejoin="round" fill="none"/></svg>