<svg xmlns:osb="http://www.openswatchbook.org/uri/2009/osb" xmlns="http://www.w3.org/2000/svg" xmlns:xlink="http://www.w3.org/1999/xlink" viewBox="176 76 128 128" enable-background="new 176 76 48 48"><defs><linearGradient id="a"><stop offset="0" stop-color="#22f0ff"/><stop offset="1" stop-color="#fff" stop-opacity="0"/></linearGradient><linearGradient osb:paint="solid"><stop offset="0" stop-color="#fff"/></linearGradient><marker orient="auto" overflow="visible"><path d="M10 0l4-4-14 4 14 4-4-4z" fill-rule="evenodd" stroke="#000" stroke-width="NaN"/></marker><linearGradient xlink:href="#a" x1="176" y1="152" x2="304" y2="152" gradientUnits="userSpaceOnUse"/><linearGradient xlink:href="#a" x1="237.4" y1="83.5" x2="237.4" y2="220.506" gradientUnits="userSpaceOnUse"/><filter width="1.5" height="1.5" x="-.25" y="-.25"><feGaussianBlur in="SourceAlpha" stdDeviation="1" result="blur"/><feColorMatrix result="bluralpha" values="1 0 0 0 0 0 1 0 0 0 0 0 1 0 0 0 0 0 0.1 0"/><feOffset in="bluralpha" dx="1" dy="1" result="offsetBlur"/><feMerge><feMergeNode in="offsetBlur"/><feMergeNode in="SourceGraphic"/></feMerge></filter></defs><linearGradient gradientUnits="userSpaceOnUse" x1="71.366" y1="132.875" x2="71.366" y2="121.375" gradientTransform="matrix(4.167 0 0 -4.167 -97.318 709.646)"><stop offset="0" stop-color="#d02df9"/><stop offset=".5" stop-color="#e73399"/><stop offset="1" stop-color="#ff963a"/></linearGradient><text y="171.872" x="212.485" style="line-height:125%;-inkscape-font-specification:Roboto Slab" font-size="40" letter-spacing="0" word-spacing="0" font-family="Roboto Slab"/><path d="M240.063 99.781c-11.546 0-21.193 8.102-23.563 18.938h-11.125c-2.77 0-5 2.23-5 5v51.5c0 2.77 2.23 5 5 5h69.25c2.77 0 5-2.23 5-5v-51.5c0-2.77-2.23-5-5-5h-11c-2.37-10.835-12.016-18.938-23.563-18.938zm-.063 31.031c5.081 0 9.188 4.106 9.188 9.188 0 3.57-2.032 6.666-5 8.188v15.407c0 2.77-1.861 5-4.188 5s-4.188-2.23-4.188-5v-15.407c-2.968-1.521-5-4.617-5-8.188 0-5.081 4.106-9.188 9.188-9.188z" fill="#fff"/></svg>