<?xml version="1.0" encoding="UTF-8" standalone="no"?>
<svg
   xmlns:osb="http://www.openswatchbook.org/uri/2009/osb"
   xmlns:dc="http://purl.org/dc/elements/1.1/"
   xmlns:cc="http://creativecommons.org/ns#"
   xmlns:rdf="http://www.w3.org/1999/02/22-rdf-syntax-ns#"
   xmlns:svg="http://www.w3.org/2000/svg"
   xmlns="http://www.w3.org/2000/svg"
   xmlns:xlink="http://www.w3.org/1999/xlink"
   xmlns:sodipodi="http://sodipodi.sourceforge.net/DTD/sodipodi-0.dtd"
   xmlns:inkscape="http://www.inkscape.org/namespaces/inkscape"
   version="1.1"
   id="Icon"
   x="0px"
   y="0px"
   viewBox="176 76 128 128"
   enable-background="new 176 76 48 48"
   xml:space="preserve"
   inkscape:version="0.48.2 r9819"
   width="100%"
   height="100%"
   sodipodi:docname="password.svg"><metadata
   id="metadata28"><rdf:RDF><cc:Work
       rdf:about=""><dc:format>image/svg+xml</dc:format><dc:type
         rdf:resource="http://purl.org/dc/dcmitype/StillImage" /></cc:Work></rdf:RDF></metadata><defs
   id="defs26"><linearGradient
     id="linearGradient5284"><stop
       style="stop-color:#22f0ff;stop-opacity:1;"
       offset="0"
       id="stop5286" /><stop
       style="stop-color:#ffffff;stop-opacity:0;"
       offset="1"
       id="stop5288" /></linearGradient><linearGradient
     id="linearGradient6288"
     osb:paint="solid"><stop
       style="stop-color:#ffffff;stop-opacity:1;"
       offset="0"
       id="stop6290" /></linearGradient><marker
     inkscape:stockid="Arrow1Lstart"
     orient="auto"
     refY="0"
     refX="0"
     id="Arrow1Lstart"
     style="overflow:visible"><path
       id="path3789"
       d="M 0,0 5,-5 -12.5,0 5,5 0,0 z"
       style="fill-rule:evenodd;stroke:#000000;stroke-width:1pt;marker-start:none"
       transform="matrix(0.8,0,0,0.8,10,0)"
       inkscape:connector-curvature="0" /></marker><linearGradient
     inkscape:collect="always"
     xlink:href="#linearGradient5284"
     id="linearGradient5290"
     x1="176"
     y1="152"
     x2="304"
     y2="152"
     gradientUnits="userSpaceOnUse" /><linearGradient
     inkscape:collect="always"
     xlink:href="#linearGradient5284"
     id="linearGradient3806"
     x1="237.39999"
     y1="83.5"
     x2="237.39999"
     y2="220.50616"
     gradientUnits="userSpaceOnUse" /><filter
     id="filter3102"
     inkscape:label="Drop shadow"
     width="1.5"
     height="1.5"
     x="-.25"
     y="-.25"><feGaussianBlur
       id="feGaussianBlur3104"
       in="SourceAlpha"
       stdDeviation="1"
       result="blur" /><feColorMatrix
       id="feColorMatrix3106"
       result="bluralpha"
       type="matrix"
       values="1 0 0 0 0 0 1 0 0 0 0 0 1 0 0 0 0 0 0.1 0 " /><feOffset
       id="feOffset3108"
       in="bluralpha"
       dx="1"
       dy="1"
       result="offsetBlur" /><feMerge
       id="feMerge3110"><feMergeNode
         id="feMergeNode3112"
         in="offsetBlur" /><feMergeNode
         id="feMergeNode3114"
         in="SourceGraphic" /></feMerge></filter></defs><sodipodi:namedview
   pagecolor="#ffffff"
   bordercolor="#666666"
   borderopacity="1"
   objecttolerance="10"
   gridtolerance="10"
   guidetolerance="10"
   inkscape:pageopacity="0"
   inkscape:pageshadow="2"
   inkscape:window-width="1920"
   inkscape:window-height="1057"
   id="namedview24"
   showgrid="false"
   inkscape:zoom="5"
   inkscape:cx="14.147468"
   inkscape:cy="67.243421"
   inkscape:window-x="-8"
   inkscape:window-y="-8"
   inkscape:window-maximized="1"
   inkscape:current-layer="Icon"
   inkscape:snap-center="true"
   inkscape:snap-bbox="true"
   inkscape:snap-global="true"
   inkscape:showpageshadow="false"
   showborder="true" />
<linearGradient
   id="SVGID_1_"
   gradientUnits="userSpaceOnUse"
   x1="71.366203"
   y1="132.875"
   x2="71.366203"
   y2="121.375"
   gradientTransform="matrix(4.1667,0,0,-4.1667,-97.3177,709.646)">
	<stop
   offset="0"
   style="stop-color:#d02df9;stop-opacity:1;"
   id="stop4" /><stop
   id="stop6312"
   style="stop-color:#e73399;stop-opacity:1;"
   offset="0.5" />
	<stop
   offset="1"
   style="stop-color:#ff963a;stop-opacity:1;"
   id="stop6" />
</linearGradient>

<g
   id="W0qAS3_2_"
   transform="translate(0,80)">
	<g
   id="g11">
		<g
   id="g13">
			
		</g>
	</g>
</g>


<text
   sodipodi:linespacing="125%"
   id="text3007"
   y="171.87207"
   x="212.48535"
   style="font-size:40px;font-style:normal;font-variant:normal;font-weight:normal;font-stretch:normal;line-height:125%;letter-spacing:0px;word-spacing:0px;fill:#000000;fill-opacity:1;stroke:none;font-family:Roboto Slab;-inkscape-font-specification:Roboto Slab"
   xml:space="preserve"><tspan
     style="font-size:92px;font-style:normal;font-variant:normal;font-weight:normal;font-stretch:normal;fill:#ffffff;font-family:Roboto Slab;-inkscape-font-specification:Roboto Slab"
     y="171.87207"
     x="212.48535"
     id="tspan3009"
     sodipodi:role="line" /></text>





<path
   style="fill:#ffffff;fill-opacity:1;stroke:none"
   d="m 64.0625,23.78125 c -11.54623,0 -21.1926,8.10231 -23.5625,18.9375 l -11.125,0 c -2.77,0 -5,2.23 -5,5 l 0,51.5 c 0,2.77 2.23,5 5,5 l 69.25,0 c 2.77,0 5,-2.23 5,-5 l 0,-51.5 c 0,-2.77 -2.23,-5 -5,-5 l -11,0 C 85.2551,31.88356 75.60873,23.78125 64.0625,23.78125 z M 64,54.8125 c 5.08102,0 9.1875,4.10648 9.1875,9.1875 0,3.570011 -2.031852,6.666042 -5,8.1875 0.0026,0.07239 0,0.145572 0,0.21875 l 0,15.1875 c 0,2.77 -1.8607,5 -4.1875,5 -2.3268,0 -4.1875,-2.23 -4.1875,-5 l 0,-15.1875 c 0,-0.07318 -0.0026,-0.146357 0,-0.21875 -2.968148,-1.521458 -5,-4.617489 -5,-8.1875 0,-5.08102 4.10648,-9.1875 9.1875,-9.1875 z"
   transform="translate(176,76)"
   id="rect3010"
   inkscape:connector-curvature="0"
   sodipodi:nodetypes="scsssssssscssscssssscss" /></svg>