<svg xmlns:osb="http://www.openswatchbook.org/uri/2009/osb" xmlns="http://www.w3.org/2000/svg" xmlns:xlink="http://www.w3.org/1999/xlink" viewBox="176 76 128 128" enable-background="new 176 76 48 48"><defs><linearGradient id="a"><stop offset="0" stop-color="#22f0ff"/><stop offset="1" stop-color="#fff" stop-opacity="0"/></linearGradient><linearGradient osb:paint="solid"><stop offset="0" stop-color="#fff"/></linearGradient><marker orient="auto" overflow="visible"><path d="M10 0l4-4-14 4 14 4-4-4z" fill-rule="evenodd" stroke="#000" stroke-width="NaN"/></marker><linearGradient xlink:href="#a" x1="176" y1="152" x2="304" y2="152" gradientUnits="userSpaceOnUse"/><linearGradient xlink:href="#a" x1="237.4" y1="83.5" x2="237.4" y2="220.506" gradientUnits="userSpaceOnUse"/><filter width="1.5" height="1.5" x="-.25" y="-.25"><feGaussianBlur in="SourceAlpha" stdDeviation="1" result="blur"/><feColorMatrix result="bluralpha" values="1 0 0 0 0 0 1 0 0 0 0 0 1 0 0 0 0 0 0.1 0"/><feOffset in="bluralpha" dx="1" dy="1" result="offsetBlur"/><feMerge><feMergeNode in="offsetBlur"/><feMergeNode in="SourceGraphic"/></feMerge></filter></defs><linearGradient gradientUnits="userSpaceOnUse" x1="71.366" y1="132.875" x2="71.366" y2="121.375" gradientTransform="matrix(4.167 0 0 -4.167 -97.318 709.646)"><stop offset="0" stop-color="#d02df9"/><stop offset=".5" stop-color="#e73399"/><stop offset="1" stop-color="#ff963a"/></linearGradient><text y="171.872" x="212.485" style="line-height:125%;-inkscape-font-specification:Roboto Slab" font-size="40" letter-spacing="0" word-spacing="0" font-family="Roboto Slab"/><g fill="#fff"><path d="M257.667 116.171c0 10.862-7.91 19.667-17.667 19.667-9.757 0-17.667-8.805-17.667-19.667 0-10.862 7.91-19.667 17.667-19.667 9.757 0 17.667 8.805 17.667 19.667z"/><path d="M226.625 134.233c-6.6 1.952-12.16 5.473-15.063 10.5-4.677 8.101-4.27 23.575 3.313 30.375 12.47 11.184 37.78 11.184 50.25 0 7.582-6.8 7.989-22.274 3.313-30.375-2.902-5.027-8.463-8.549-15.063-10.5-3.24 3.769-8.015 5.438-13.375 5.438-5.36 0-10.135-1.668-13.375-5.438z"/></g></svg>