<?xml version="1.0" encoding="UTF-8" standalone="no"?>
<svg
   xmlns:osb="http://www.openswatchbook.org/uri/2009/osb"
   xmlns:dc="http://purl.org/dc/elements/1.1/"
   xmlns:cc="http://creativecommons.org/ns#"
   xmlns:rdf="http://www.w3.org/1999/02/22-rdf-syntax-ns#"
   xmlns:svg="http://www.w3.org/2000/svg"
   xmlns="http://www.w3.org/2000/svg"
   xmlns:sodipodi="http://sodipodi.sourceforge.net/DTD/sodipodi-0.dtd"
   xmlns:inkscape="http://www.inkscape.org/namespaces/inkscape"
   version="1.1"
   id="Icon"
   x="0px"
   y="0px"
   viewBox="176 76 64 64"
   enable-background="new 176 76 48 48"
   xml:space="preserve"
   inkscape:version="0.48.2 r9819"
   width="100%"
   height="100%"
   sodipodi:docname="close.svg"><metadata
   id="metadata28"><rdf:RDF><cc:Work
       rdf:about=""><dc:format>image/svg+xml</dc:format><dc:type
         rdf:resource="http://purl.org/dc/dcmitype/StillImage" /></cc:Work></rdf:RDF></metadata><defs
   id="defs26"><linearGradient
     id="linearGradient6288"
     osb:paint="solid"><stop
       style="stop-color:#ffffff;stop-opacity:1;"
       offset="0"
       id="stop6290" /></linearGradient><marker
     inkscape:stockid="Arrow1Lstart"
     orient="auto"
     refY="0"
     refX="0"
     id="Arrow1Lstart"
     style="overflow:visible"><path
       id="path3789"
       d="M 0,0 5,-5 -12.5,0 5,5 0,0 z"
       style="fill-rule:evenodd;stroke:#000000;stroke-width:1pt;marker-start:none"
       transform="matrix(0.8,0,0,0.8,10,0)"
       inkscape:connector-curvature="0" /></marker></defs><sodipodi:namedview
   pagecolor="#ffffff"
   bordercolor="#666666"
   borderopacity="1"
   objecttolerance="10"
   gridtolerance="10"
   guidetolerance="10"
   inkscape:pageopacity="0"
   inkscape:pageshadow="2"
   inkscape:window-width="1440"
   inkscape:window-height="877"
   id="namedview24"
   showgrid="false"
   inkscape:zoom="5"
   inkscape:cx="-25.803691"
   inkscape:cy="35.04321"
   inkscape:window-x="-8"
   inkscape:window-y="-8"
   inkscape:window-maximized="1"
   inkscape:current-layer="Icon"
   inkscape:snap-center="true"
   inkscape:snap-bbox="true"
   inkscape:snap-global="true"
   inkscape:showpageshadow="false"
   showborder="true"
   showguides="true"
   inkscape:guide-bbox="true" />
<linearGradient
   id="SVGID_1_"
   gradientUnits="userSpaceOnUse"
   x1="71.366203"
   y1="132.875"
   x2="71.366203"
   y2="121.375"
   gradientTransform="matrix(4.1667,0,0,-4.1667,-97.3177,709.646)">
	<stop
   offset="0"
   style="stop-color:#d02df9;stop-opacity:1;"
   id="stop4" /><stop
   id="stop6312"
   style="stop-color:#e73399;stop-opacity:1;"
   offset="0.5" />
	<stop
   offset="1"
   style="stop-color:#ff963a;stop-opacity:1;"
   id="stop6" />
</linearGradient>

<g
   id="W0qAS3_2_"
   transform="translate(0,16)">
	<g
   id="g11">
		<g
   id="g13">
			
		</g>
	</g>
</g>

<path
   style="fill:#ffffff;fill-opacity:1;stroke:none"
   d="M 16.21875 6.84375 C 15.298999 6.84375 14.392261 7.1702392 13.6875 7.875 L 7.875 13.6875 C 6.4654784 15.097022 6.4654784 17.371728 7.875 18.78125 L 21.09375 32 L 7.875 45.21875 C 6.4654784 46.628272 6.4654784 48.902978 7.875 50.3125 L 13.6875 56.125 C 15.097022 57.534522 17.371728 57.534522 18.78125 56.125 L 32 42.90625 L 45.21875 56.125 C 46.628272 57.534522 48.902978 57.534522 50.3125 56.125 L 56.125 50.3125 C 57.534522 48.902978 57.534522 46.628272 56.125 45.21875 L 42.90625 32 L 56.125 18.78125 C 57.534522 17.371728 57.534522 15.097022 56.125 13.6875 L 50.3125 7.875 C 48.902978 6.4654784 46.628272 6.4654784 45.21875 7.875 L 32 21.09375 L 18.78125 7.875 C 18.076489 7.1702392 17.138501 6.84375 16.21875 6.84375 z "
   transform="translate(176,76)"
   id="rect3771" /></svg>