<?xml version="1.0" encoding="UTF-8" standalone="no"?>
<svg
   xmlns:osb="http://www.openswatchbook.org/uri/2009/osb"
   xmlns:dc="http://purl.org/dc/elements/1.1/"
   xmlns:cc="http://creativecommons.org/ns#"
   xmlns:rdf="http://www.w3.org/1999/02/22-rdf-syntax-ns#"
   xmlns:svg="http://www.w3.org/2000/svg"
   xmlns="http://www.w3.org/2000/svg"
   xmlns:sodipodi="http://sodipodi.sourceforge.net/DTD/sodipodi-0.dtd"
   xmlns:inkscape="http://www.inkscape.org/namespaces/inkscape"
   version="1.1"
   id="Icon"
   x="0px"
   y="0px"
   viewBox="176 76 64 64"
   enable-background="new 176 76 48 48"
   xml:space="preserve"
   inkscape:version="0.48.4 r9939"
   width="100%"
   height="100%"
   sodipodi:docname="connect.svg"><metadata
     id="metadata28"><rdf:RDF><cc:Work
         rdf:about=""><dc:format>image/svg+xml</dc:format><dc:type
           rdf:resource="http://purl.org/dc/dcmitype/StillImage" /></cc:Work></rdf:RDF></metadata><defs
     id="defs26"><linearGradient
       id="linearGradient6288"
       osb:paint="solid"><stop
         style="stop-color:#ffffff;stop-opacity:1;"
         offset="0"
         id="stop6290" /></linearGradient><marker
       inkscape:stockid="Arrow1Lstart"
       orient="auto"
       refY="0"
       refX="0"
       id="Arrow1Lstart"
       style="overflow:visible"><path
         id="path3789"
         d="M 0,0 5,-5 -12.5,0 5,5 0,0 z"
         style="fill-rule:evenodd;stroke:#000000;stroke-width:1pt;marker-start:none"
         transform="matrix(0.8,0,0,0.8,10,0)"
         inkscape:connector-curvature="0" /></marker></defs><sodipodi:namedview
     pagecolor="#ffffff"
     bordercolor="#666666"
     borderopacity="1"
     objecttolerance="10"
     gridtolerance="10"
     guidetolerance="10"
     inkscape:pageopacity="0"
     inkscape:pageshadow="2"
     inkscape:window-width="1513"
     inkscape:window-height="674"
     id="namedview24"
     showgrid="false"
     inkscape:zoom="3"
     inkscape:cx="-81.895795"
     inkscape:cy="27.04321"
     inkscape:window-x="329"
     inkscape:window-y="174"
     inkscape:window-maximized="0"
     inkscape:current-layer="Icon"
     inkscape:snap-center="true"
     inkscape:snap-bbox="true"
     inkscape:snap-global="true"
     inkscape:showpageshadow="false"
     showborder="true"
     showguides="true"
     inkscape:guide-bbox="true" /><linearGradient
     id="SVGID_1_"
     gradientUnits="userSpaceOnUse"
     x1="71.366203"
     y1="132.875"
     x2="71.366203"
     y2="121.375"
     gradientTransform="matrix(4.1667,0,0,-4.1667,-97.3177,709.646)"><stop
       offset="0"
       style="stop-color:#d02df9;stop-opacity:1;"
       id="stop4" /><stop
       id="stop6312"
       style="stop-color:#e73399;stop-opacity:1;"
       offset="0.5" /><stop
       offset="1"
       style="stop-color:#ff963a;stop-opacity:1;"
       id="stop6" /></linearGradient><g
     id="W0qAS3_2_"
     transform="translate(0,16)"><g
       id="g11"><g
         id="g13" /></g></g><path
     sodipodi:type="arc"
     style="opacity:1;fill:#ff6b62;fill-opacity:1;fill-rule:evenodd;stroke:none"
     id="path3792"
     sodipodi:cx="-36.299999"
     sodipodi:cy="24.299999"
     sodipodi:rx="23.9"
     sodipodi:ry="23.9"
     d="m -12.4,24.299999 a 23.9,23.9 0 1 1 -47.799999,0 23.9,23.9 0 1 1 47.799999,0 z"
     transform="matrix(1.3389122,0,0,1.3389122,256.60251,75.464436)" /><g
     id="g3866"
     style="fill:#ffffff;fill-opacity:1;"><path
       transform="translate(170.99999,68.751933)"
       d="m 45.833333,27.333334 c 0,5.4308 -3.954818,9.833333 -8.833333,9.833333 -4.878515,0 -8.833333,-4.402533 -8.833333,-9.833333 0,-5.4308 3.954818,-9.833333 8.833333,-9.833333 4.878515,0 8.833333,4.402533 8.833333,9.833333 z"
       sodipodi:ry="9.833333"
       sodipodi:rx="8.833333"
       sodipodi:cy="27.333334"
       sodipodi:cx="37"
       id="path2996"
       style="fill:#ffffff;fill-opacity:1;stroke:none;"
       sodipodi:type="arc" /><path
       sodipodi:nodetypes="csaascsc"
       inkscape:connector-curvature="0"
       id="path3819"
       d="m 201.3125,105.11671 c -3.29998,0.97575 -6.08005,2.73644 -7.53125,5.25 -2.33842,4.05025 -2.13487,11.78734 1.65625,15.1875 6.23477,5.59181 18.89023,5.59181 25.125,0 3.79112,-3.40016 3.99467,-11.13725 1.65625,-15.1875 -1.4512,-2.51356 -4.23127,-4.27425 -7.53125,-5.25 -1.61998,1.88466 -4.00735,2.71875 -6.6875,2.71875 -2.68015,0 -5.06752,-0.83409 -6.6875,-2.71875 z"
       style="fill:#ffffff;fill-opacity:1;stroke:none;" /></g><path
     sodipodi:type="arc"
     style="opacity:0.1;fill:#ffffff;fill-opacity:1;stroke:none"
     id="path3796"
     sodipodi:cx="30.1"
     sodipodi:cy="30.9"
     sodipodi:rx="19.299999"
     sodipodi:ry="19.299999"
     d="m 30.100001,11.6 a 19.299999,19.299999 0 0 1 0,38.599999 L 30.1,30.9 z"
     transform="matrix(-1.1724051,-1.1724051,1.1724051,-1.1724051,207.06207,179.51671)"
     sodipodi:start="4.712389"
     sodipodi:end="7.8539816" /></svg>