<?xml version="1.0" encoding="UTF-8" standalone="no"?>
<svg
   xmlns:osb="http://www.openswatchbook.org/uri/2009/osb"
   xmlns:dc="http://purl.org/dc/elements/1.1/"
   xmlns:cc="http://creativecommons.org/ns#"
   xmlns:rdf="http://www.w3.org/1999/02/22-rdf-syntax-ns#"
   xmlns:svg="http://www.w3.org/2000/svg"
   xmlns="http://www.w3.org/2000/svg"
   xmlns:sodipodi="http://sodipodi.sourceforge.net/DTD/sodipodi-0.dtd"
   xmlns:inkscape="http://www.inkscape.org/namespaces/inkscape"
   version="1.1"
   id="Icon"
   x="0px"
   y="0px"
   viewBox="176 76 64 64"
   enable-background="new 176 76 48 48"
   xml:space="preserve"
   inkscape:version="0.48.2 r9819"
   width="100%"
   height="100%"
   sodipodi:docname="erase.svg"><metadata
   id="metadata28"><rdf:RDF><cc:Work
       rdf:about=""><dc:format>image/svg+xml</dc:format><dc:type
         rdf:resource="http://purl.org/dc/dcmitype/StillImage" /></cc:Work></rdf:RDF></metadata><defs
   id="defs26"><linearGradient
     id="linearGradient6288"
     osb:paint="solid"><stop
       style="stop-color:#ffffff;stop-opacity:1;"
       offset="0"
       id="stop6290" /></linearGradient><marker
     inkscape:stockid="Arrow1Lstart"
     orient="auto"
     refY="0"
     refX="0"
     id="Arrow1Lstart"
     style="overflow:visible"><path
       id="path3789"
       d="M 0,0 5,-5 -12.5,0 5,5 0,0 z"
       style="fill-rule:evenodd;stroke:#000000;stroke-width:1pt;marker-start:none"
       transform="matrix(0.8,0,0,0.8,10,0)"
       inkscape:connector-curvature="0" /></marker></defs><sodipodi:namedview
   pagecolor="#ffffff"
   bordercolor="#666666"
   borderopacity="1"
   objecttolerance="10"
   gridtolerance="10"
   guidetolerance="10"
   inkscape:pageopacity="0"
   inkscape:pageshadow="2"
   inkscape:window-width="1440"
   inkscape:window-height="877"
   id="namedview24"
   showgrid="false"
   inkscape:zoom="5"
   inkscape:cx="-19.023029"
   inkscape:cy="51.04321"
   inkscape:window-x="-8"
   inkscape:window-y="-8"
   inkscape:window-maximized="1"
   inkscape:current-layer="Icon"
   inkscape:snap-center="true"
   inkscape:snap-bbox="true"
   inkscape:snap-global="true"
   inkscape:showpageshadow="false"
   showborder="true"
   showguides="true"
   inkscape:guide-bbox="true" />
<linearGradient
   id="SVGID_1_"
   gradientUnits="userSpaceOnUse"
   x1="71.366203"
   y1="132.875"
   x2="71.366203"
   y2="121.375"
   gradientTransform="matrix(4.1667,0,0,-4.1667,-97.3177,709.646)">
	<stop
   offset="0"
   style="stop-color:#d02df9;stop-opacity:1;"
   id="stop4" /><stop
   id="stop6312"
   style="stop-color:#e73399;stop-opacity:1;"
   offset="0.5" />
	<stop
   offset="1"
   style="stop-color:#ff963a;stop-opacity:1;"
   id="stop6" />
</linearGradient>

<g
   id="W0qAS3_2_"
   transform="translate(0,16)">
	<g
   id="g11">
		<g
   id="g13">
			
		</g>
	</g>
</g>

<path
   style="font-size:medium;font-style:normal;font-variant:normal;font-weight:normal;font-stretch:normal;text-indent:0;text-align:start;text-decoration:none;line-height:normal;letter-spacing:normal;word-spacing:normal;text-transform:none;direction:ltr;block-progression:tb;writing-mode:lr-tb;text-anchor:start;baseline-shift:baseline;color:#000000;fill:#ffffff;fill-opacity:1;stroke:none;stroke-width:2.74951196;marker:none;visibility:visible;display:inline;overflow:visible;enable-background:accumulate;font-family:Sans;-inkscape-font-specification:Sans"
   d="m 200.90684,132.77082 c -0.85495,0.85495 -1.84754,1.45946 -2.87263,1.7236 -1.02507,0.26411 -2.25998,0.17068 -3.11568,-0.68501 L 182.1906,121.08147 c -0.8557,-0.8557 -0.94914,-2.09061 -0.68501,-3.11569 0.26415,-1.02506 0.86863,-2.01768 1.7236,-2.87263 l 15.93198,-15.93198 15.93198,-15.932 c 0.85496,-0.85496 1.84756,-1.45944 2.87263,-1.72358 1.02508,-0.26413 2.25999,-0.17069 3.11569,0.68501 l 12.72792,12.72792 c 0.85571,0.85571 0.94915,2.09061 0.68501,3.11569 -0.26412,1.02509 -0.86862,2.01767 -1.72357,2.87262 l -15.93199,15.93201 z m 13.98745,-17.87653 15.932,-15.932 c 0.54701,-0.547 0.88365,-1.18339 0.99436,-1.61309 0.11072,-0.42969 0.016,-0.51434 0.0442,-0.48613 L 219.13692,84.13515 c 0.0282,0.0282 -0.0566,-0.0665 -0.48613,0.0442 -0.4297,0.11073 -1.06608,0.44737 -1.61308,0.99437 l -15.932,15.932 z"
   id="rect3773"
   inkscape:connector-curvature="0"
   sodipodi:nodetypes="sssssscsssssscscsscccscc" /></svg>