<?xml version="1.0" encoding="UTF-8" standalone="no"?>
<svg
   xmlns:osb="http://www.openswatchbook.org/uri/2009/osb"
   xmlns:dc="http://purl.org/dc/elements/1.1/"
   xmlns:cc="http://creativecommons.org/ns#"
   xmlns:rdf="http://www.w3.org/1999/02/22-rdf-syntax-ns#"
   xmlns:svg="http://www.w3.org/2000/svg"
   xmlns="http://www.w3.org/2000/svg"
   xmlns:sodipodi="http://sodipodi.sourceforge.net/DTD/sodipodi-0.dtd"
   xmlns:inkscape="http://www.inkscape.org/namespaces/inkscape"
   version="1.1"
   id="Icon"
   x="0px"
   y="0px"
   viewBox="176 76 64 64"
   enable-background="new 176 76 48 48"
   xml:space="preserve"
   inkscape:version="0.48.2 r9819"
   width="100%"
   height="100%"
   sodipodi:docname="github.svg"><metadata
   id="metadata28"><rdf:RDF><cc:Work
       rdf:about=""><dc:format>image/svg+xml</dc:format><dc:type
         rdf:resource="http://purl.org/dc/dcmitype/StillImage" /></cc:Work></rdf:RDF></metadata><defs
   id="defs26"><linearGradient
     id="linearGradient6288"
     osb:paint="solid"><stop
       style="stop-color:#ffffff;stop-opacity:1;"
       offset="0"
       id="stop6290" /></linearGradient><marker
     inkscape:stockid="Arrow1Lstart"
     orient="auto"
     refY="0"
     refX="0"
     id="Arrow1Lstart"
     style="overflow:visible"><path
       id="path3789"
       d="M 0,0 5,-5 -12.5,0 5,5 0,0 z"
       style="fill-rule:evenodd;stroke:#000000;stroke-width:1pt;marker-start:none"
       transform="matrix(0.8,0,0,0.8,10,0)"
       inkscape:connector-curvature="0" /></marker></defs><sodipodi:namedview
   pagecolor="#ffffff"
   bordercolor="#666666"
   borderopacity="1"
   objecttolerance="10"
   gridtolerance="10"
   guidetolerance="10"
   inkscape:pageopacity="0"
   inkscape:pageshadow="2"
   inkscape:window-width="965"
   inkscape:window-height="638"
   id="namedview24"
   showgrid="false"
   inkscape:zoom="5"
   inkscape:cx="20.24664"
   inkscape:cy="35.04321"
   inkscape:window-x="649"
   inkscape:window-y="208"
   inkscape:window-maximized="0"
   inkscape:current-layer="Icon"
   inkscape:snap-center="true"
   inkscape:snap-bbox="true"
   inkscape:snap-global="true"
   inkscape:showpageshadow="false"
   showborder="true"
   showguides="true"
   inkscape:guide-bbox="true" />
<linearGradient
   id="SVGID_1_"
   gradientUnits="userSpaceOnUse"
   x1="71.366203"
   y1="132.875"
   x2="71.366203"
   y2="121.375"
   gradientTransform="matrix(4.1667,0,0,-4.1667,-97.3177,709.646)">
	<stop
   offset="0"
   style="stop-color:#d02df9;stop-opacity:1;"
   id="stop4" /><stop
   id="stop6312"
   style="stop-color:#e73399;stop-opacity:1;"
   offset="0.5" />
	<stop
   offset="1"
   style="stop-color:#ff963a;stop-opacity:1;"
   id="stop6" />
</linearGradient>

<g
   id="W0qAS3_2_"
   transform="translate(0,16)">
	<g
   id="g11">
		<g
   id="g13">
			
		</g>
	</g>
</g>

<path
   d="M 207.99804,76.000004 C 190.3283,76.000004 176,90.689345 176,108.81286 c 0,14.49397 9.16783,26.79048 21.88533,31.13102 1.60098,0.30011 2.18441,-0.71302 2.18441,-1.58314 0,-0.77747 -0.0275,-2.842 -0.0432,-5.57925 -8.90068,1.98194 -10.77864,-4.39895 -10.77864,-4.39895 -1.45561,-3.79067 -3.55359,-4.79775 -3.55359,-4.79775 -2.90534,-2.03633 0.22001,-1.99605 0.22001,-1.99605 3.21179,0.23365 4.90117,3.3818 4.90117,3.3818 2.85427,5.01326 7.48827,3.56508 9.3132,2.72718 0.29073,-2.12092 1.11577,-3.56709 2.03118,-4.38686 -7.10522,-0.82782 -14.57581,-3.64363 -14.57581,-16.21608 0,-3.5812 1.24739,-6.5098 3.29429,-8.803941 -0.33002,-0.829838 -1.42812,-4.16532 0.31234,-8.683103 0,0 2.68729,-0.882206 8.80049,3.363664 2.55175,-0.72913 5.29012,-1.09168 8.0108,-1.105779 2.71676,0.0145 5.45513,0.376649 8.01081,1.105779 6.10927,-4.24587 8.79067,-3.363664 8.79067,-3.363664 1.74635,4.517783 0.64825,7.853265 0.31823,8.683103 2.05083,2.294141 3.29036,5.222741 3.29036,8.803941 0,12.60467 -7.48238,15.37818 -14.61117,16.18989 1.14917,1.01313 2.17262,3.01522 2.17262,6.07676 0,4.38484 -0.0393,7.92374 -0.0393,8.99931 0,0.87818 0.57557,1.89936 2.20013,1.57911 C 230.83806,135.59125 240,123.3028 240,108.81286 240,90.689345 225.6717,76.000004 207.99804,76.000004"
   style="fill:#323131;fill-opacity:1;fill-rule:evenodd;stroke:none"
   id="path22"
   inkscape:connector-curvature="0" /></svg>