<?xml version="1.0" encoding="UTF-8" standalone="no"?>
<svg
   xmlns:osb="http://www.openswatchbook.org/uri/2009/osb"
   xmlns:dc="http://purl.org/dc/elements/1.1/"
   xmlns:cc="http://creativecommons.org/ns#"
   xmlns:rdf="http://www.w3.org/1999/02/22-rdf-syntax-ns#"
   xmlns:svg="http://www.w3.org/2000/svg"
   xmlns="http://www.w3.org/2000/svg"
   xmlns:sodipodi="http://sodipodi.sourceforge.net/DTD/sodipodi-0.dtd"
   xmlns:inkscape="http://www.inkscape.org/namespaces/inkscape"
   version="1.1"
   id="Icon"
   x="0px"
   y="0px"
   viewBox="176 76 64 64"
   enable-background="new 176 76 48 48"
   xml:space="preserve"
   inkscape:version="0.48.2 r9819"
   width="100%"
   height="100%"
   sodipodi:docname="github.svg"><metadata
   id="metadata28"><rdf:RDF><cc:Work
       rdf:about=""><dc:format>image/svg+xml</dc:format><dc:type
         rdf:resource="http://purl.org/dc/dcmitype/StillImage" /></cc:Work></rdf:RDF></metadata><defs
   id="defs26"><linearGradient
     id="linearGradient6288"
     osb:paint="solid"><stop
       style="stop-color:#ffffff;stop-opacity:1;"
       offset="0"
       id="stop6290" /></linearGradient><marker
     inkscape:stockid="Arrow1Lstart"
     orient="auto"
     refY="0"
     refX="0"
     id="Arrow1Lstart"
     style="overflow:visible"><path
       id="path3789"
       d="M 0,0 5,-5 -12.5,0 5,5 0,0 z"
       style="fill-rule:evenodd;stroke:#000000;stroke-width:1pt;marker-start:none"
       transform="matrix(0.8,0,0,0.8,10,0)"
       inkscape:connector-curvature="0" /></marker></defs><sodipodi:namedview
   pagecolor="#ffffff"
   bordercolor="#666666"
   borderopacity="1"
   objecttolerance="10"
   gridtolerance="10"
   guidetolerance="10"
   inkscape:pageopacity="0"
   inkscape:pageshadow="2"
   inkscape:window-width="965"
   inkscape:window-height="638"
   id="namedview24"
   showgrid="false"
   inkscape:zoom="5"
   inkscape:cx="20.24664"
   inkscape:cy="35.04321"
   inkscape:window-x="649"
   inkscape:window-y="208"
   inkscape:window-maximized="0"
   inkscape:current-layer="Icon"
   inkscape:snap-center="true"
   inkscape:snap-bbox="true"
   inkscape:snap-global="true"
   inkscape:showpageshadow="false"
   showborder="true"
   showguides="true"
   inkscape:guide-bbox="true" />
<linearGradient
   id="SVGID_1_"
   gradientUnits="userSpaceOnUse"
   x1="71.366203"
   y1="132.875"
   x2="71.366203"
   y2="121.375"
   gradientTransform="matrix(4.1667,0,0,-4.1667,-97.3177,709.646)">
	<stop
   offset="0"
   style="stop-color:#d02df9;stop-opacity:1;"
   id="stop4" /><stop
   id="stop6312"
   style="stop-color:#e73399;stop-opacity:1;"
   offset="0.5" />
	<stop
   offset="1"
   style="stop-color:#ff963a;stop-opacity:1;"
   id="stop6" />
</linearGradient>

<g
   id="W0qAS3_2_"
   transform="translate(0,16)">
	<g
   id="g11">
		<g
   id="g13">
			
		</g>
	</g>
</g>

<path
   d="m 207.99875,88.140707 c -11.24375,0 -20.36125,9.11625 -20.36125,20.363753 0,8.995 5.83375,16.62625 13.92625,19.32 1.01875,0.18625 1.39,-0.4425 1.39,-0.9825 0,-0.4825 -0.0175,-1.76375 -0.0275,-3.4625 -5.66375,1.23 -6.85875,-2.73 -6.85875,-2.73 -0.92625,-2.3525 -2.26125,-2.9775 -2.26125,-2.9775 -1.84875,-1.26375 0.14,-1.23875 0.14,-1.23875 2.04375,0.145 3.11875,2.09875 3.11875,2.09875 1.81625,3.11125 4.765,2.2125 5.92625,1.6925 0.185,-1.31625 0.71,-2.21375 1.2925,-2.7225 -4.52125,-0.51375 -9.275,-2.26125 -9.275,-10.06375 0,-2.2225 0.79375,-4.04 2.09625,-5.46375 -0.21,-0.515 -0.90875,-2.585003 0.19875,-5.388753 0,0 1.71,-0.5475 5.6,2.0875 1.62375,-0.4525 3.36625,-0.6775 5.0975,-0.68625 1.72875,0.0088 3.47125,0.23375 5.0975,0.68625 3.8875,-2.635 5.59375,-2.0875 5.59375,-2.0875 1.11125,2.80375 0.4125,4.873753 0.2025,5.388753 1.305,1.42375 2.09375,3.24125 2.09375,5.46375 0,7.8225 -4.76125,9.54375 -9.2975,10.0475 0.73125,0.62875 1.3825,1.87125 1.3825,3.77125 0,2.72125 -0.025,4.9175 -0.025,5.585 0,0.545 0.36625,1.17875 1.4,0.98 8.08375,-2.69875 13.91375,-10.325 13.91375,-19.3175 0,-11.247503 -9.1175,-20.363753 -20.36375,-20.363753"
   style="fill:#323131;fill-opacity:1;fill-rule:evenodd;stroke:none"
   id="path22"
   inkscape:connector-curvature="0" /></svg>