<?xml version="1.0" encoding="UTF-8" standalone="no"?>
<svg
   xmlns:osb="http://www.openswatchbook.org/uri/2009/osb"
   xmlns:dc="http://purl.org/dc/elements/1.1/"
   xmlns:cc="http://creativecommons.org/ns#"
   xmlns:rdf="http://www.w3.org/1999/02/22-rdf-syntax-ns#"
   xmlns:svg="http://www.w3.org/2000/svg"
   xmlns="http://www.w3.org/2000/svg"
   xmlns:sodipodi="http://sodipodi.sourceforge.net/DTD/sodipodi-0.dtd"
   xmlns:inkscape="http://www.inkscape.org/namespaces/inkscape"
   version="1.1"
   id="Icon"
   x="0px"
   y="0px"
   viewBox="176 76 600 150"
   enable-background="new 176 76 48 48"
   xml:space="preserve"
   inkscape:version="0.48.2 r9819"
   width="100%"
   height="100%"
   sodipodi:docname="hero.svg"><metadata
   id="metadata28"><rdf:RDF><cc:Work
       rdf:about=""><dc:format>image/svg+xml</dc:format><dc:type
         rdf:resource="http://purl.org/dc/dcmitype/StillImage" /><dc:title /></cc:Work></rdf:RDF></metadata><defs
   id="defs26"><linearGradient
     id="linearGradient6288"
     osb:paint="solid"><stop
       style="stop-color:#ffffff;stop-opacity:1;"
       offset="0"
       id="stop6290" /></linearGradient><marker
     inkscape:stockid="Arrow1Lstart"
     orient="auto"
     refY="0"
     refX="0"
     id="Arrow1Lstart"
     style="overflow:visible"><path
       id="path3789"
       d="M 0,0 5,-5 -12.5,0 5,5 0,0 z"
       style="fill-rule:evenodd;stroke:#000000;stroke-width:1pt;marker-start:none"
       transform="matrix(0.8,0,0,0.8,10,0)"
       inkscape:connector-curvature="0" /></marker><filter
     id="filter3450"
     inkscape:label="Drop shadow"
     width="1.5"
     height="1.5"
     x="-0.25"
     y="-0.25"
     color-interpolation-filters="sRGB"><feGaussianBlur
       id="feGaussianBlur3452"
       in="SourceAlpha"
       stdDeviation="1"
       result="blur" /><feColorMatrix
       id="feColorMatrix3454"
       result="bluralpha"
       type="matrix"
       values="1 0 0 0 0 0 1 0 0 0 0 0 1 0 0 0 0 0 0.1 0 " /><feOffset
       id="feOffset3456"
       in="bluralpha"
       dx="0"
       dy="-1"
       result="offsetBlur" /><feMerge
       id="feMerge3458"><feMergeNode
         id="feMergeNode3460"
         in="offsetBlur" /><feMergeNode
         id="feMergeNode3462"
         in="SourceGraphic" /></feMerge></filter></defs><sodipodi:namedview
   pagecolor="#ffffff"
   bordercolor="#666666"
   borderopacity="1"
   objecttolerance="10"
   gridtolerance="10"
   guidetolerance="10"
   inkscape:pageopacity="0"
   inkscape:pageshadow="2"
   inkscape:window-width="1920"
   inkscape:window-height="1057"
   id="namedview24"
   showgrid="false"
   inkscape:zoom="2"
   inkscape:cx="306.35175"
   inkscape:cy="73.216463"
   inkscape:window-x="-8"
   inkscape:window-y="-8"
   inkscape:window-maximized="1"
   inkscape:current-layer="Icon"
   inkscape:snap-center="true"
   inkscape:snap-bbox="true"
   inkscape:snap-global="true"
   inkscape:showpageshadow="false"
   showborder="true"
   showguides="true"
   inkscape:guide-bbox="true" />
<linearGradient
   id="SVGID_1_"
   gradientUnits="userSpaceOnUse"
   x1="71.366203"
   y1="132.875"
   x2="71.366203"
   y2="121.375"
   gradientTransform="matrix(4.1667,0,0,-4.1667,-97.3177,709.646)">
	<stop
   offset="0"
   style="stop-color:#d02df9;stop-opacity:1;"
   id="stop4" /><stop
   id="stop6312"
   style="stop-color:#e73399;stop-opacity:1;"
   offset="0.5" />
	<stop
   offset="1"
   style="stop-color:#ff963a;stop-opacity:1;"
   id="stop6" />
</linearGradient>

<path
   sodipodi:type="star"
   style="fill:#90df77;fill-opacity:1;stroke:none"
   id="path3876-4"
   sodipodi:sides="3"
   sodipodi:cx="76.5"
   sodipodi:cy="37"
   sodipodi:r1="37.901188"
   sodipodi:r2="18.950594"
   sodipodi:arg1="2.6179939"
   sodipodi:arg2="3.6651914"
   inkscape:flatsided="true"
   inkscape:rounded="0"
   inkscape:randomized="0"
   d="M 43.676608,55.950593 76.500001,-0.9011879 109.32339,55.950595 z"
   transform="matrix(0.17017283,0,0,0.27957481,267.23177,149.66289)"
   inkscape:transform-center-y="-2.6490526" /><g
   id="W0qAS3_2_"
   transform="translate(0,102)">
	<g
   id="g11">
		<g
   id="g13">
			
		</g>
	</g>
</g>

<rect
   style="fill:#c1755c;fill-opacity:1;stroke:none"
   id="rect3874-8"
   width="1.5859017"
   height="9.0079222"
   x="279.45703"
   y="162.4702"
   ry="0.79295087" /><path
   sodipodi:type="star"
   style="fill:#acff93;fill-opacity:1;stroke:none"
   id="path3876"
   sodipodi:sides="3"
   sodipodi:cx="76.5"
   sodipodi:cy="37"
   sodipodi:r1="37.901188"
   sodipodi:r2="18.950594"
   sodipodi:arg1="2.6179939"
   sodipodi:arg2="3.6651914"
   inkscape:flatsided="true"
   inkscape:rounded="0"
   inkscape:randomized="0"
   d="M 43.676608,55.950593 76.500001,-0.9011879 109.32339,55.950595 z"
   transform="matrix(0.23872151,0,0,0.39219256,193.9878,176.163)"
   inkscape:transform-center-y="-3.7161427" /><path
   style="fill:#6fd05a;fill-opacity:1;stroke:none"
   d="m 176,226 95,-61 15.5,7 31.5,-23 7,2.5 51,-38.5 61.5,33 5.5,-3 54.5,31 7,-3 91.125,55 z"
   id="path3870"
   inkscape:connector-curvature="0"
   sodipodi:nodetypes="cccccccccccc" /><rect
   style="fill:#c1755c;fill-opacity:1;stroke:none"
   id="rect3874"
   width="2.2247314"
   height="12.636475"
   x="211.13763"
   y="194.12932"
   ry="1.1123657" /><path
   sodipodi:type="star"
   style="fill:#acff93;fill-opacity:1;stroke:none"
   id="path3876-8"
   sodipodi:sides="3"
   sodipodi:cx="76.5"
   sodipodi:cy="37"
   sodipodi:r1="37.901188"
   sodipodi:r2="18.950594"
   sodipodi:arg1="2.6179939"
   sodipodi:arg2="3.6651914"
   inkscape:flatsided="true"
   inkscape:rounded="0"
   inkscape:randomized="0"
   d="M 43.676608,55.950593 76.500001,-0.9011879 109.32339,55.950595 z"
   transform="matrix(0.39161284,0,0,0.51255051,225.56003,164.48379)"
   inkscape:transform-center-y="-4.8565656" /><rect
   style="fill:#c1755c;fill-opacity:1;stroke:none"
   id="rect3874-2"
   width="3.6495807"
   height="16.514418"
   x="253.6936"
   y="187.9637"
   ry="1.4537339" /><path
   style="fill:#e87c7a;fill-opacity:1;stroke:none"
   d="m 297.5,101.5 c 10.5,0 21,0 31.5,0 0,10.5 0,21 0,31.5 -2.625,0 -5.25,0 -7.875,0 -2.625,0 -7.875,8 -7.875,8 0,0 -5.25,-8 -7.875,-8 -2.625,0 -5.25,0 -7.875,0 0,-10.5 0,-21 0,-31.5 z"
   id="rect3933"
   inkscape:connector-curvature="0"
   sodipodi:nodetypes="cccccccc" /><rect
   style="fill:#e87c7a;fill-opacity:1;stroke:#666666;stroke-width:10;stroke-linecap:round;stroke-linejoin:round;stroke-miterlimit:4;stroke-opacity:1;stroke-dasharray:none;stroke-dashoffset:0"
   id="rect3999"
   width="142.5"
   height="98"
   x="621.5"
   y="88"
   rx="5"
   ry="5" /><path
   style="fill:#ffd8b9;fill-opacity:1;stroke:none"
   d="m 715,140.65625 c -2.86233,0 -5.15625,2.23 -5.15625,5 l 0,9.84375 c 0,0.20509 0.007,0.39527 0.0312,0.59375 -0.36405,-4.2e-4 -0.7297,6.1e-4 -1.09375,0 -2.85201,-0.36447 -6.07497,1.40067 -6.34375,4.46875 -0.0634,6.5369 -0.0132,13.08689 -0.0312,19.625 -0.40126,2.87176 1.85149,5.71622 4.78125,5.875 9.56827,0.0599 19.14947,0.0142 28.71875,0.0312 2.85201,0.36447 6.04372,-1.43191 6.3125,-4.5 0.0634,-6.8361 0.0132,-13.66269 0.0312,-20.5 0.0462,-2.60525 -2.24696,-4.81598 -4.78125,-5 -4.78413,-0.0299 -9.55884,-0.004 -14.34375,0 l -3,0 c 0.0245,-0.19848 0.0312,-0.38866 0.0312,-0.59375 l 0,-9.84375 c 0,-2.77 -2.29392,-5 -5.15625,-5 z"
   id="rect4058"
   inkscape:connector-curvature="0" /><path
   style="fill:none;stroke:#dea67b;stroke-width:1px;stroke-linecap:butt;stroke-linejoin:miter;stroke-opacity:1"
   d="m 709.33333,156.00003 0,16"
   id="path4065"
   inkscape:connector-curvature="0" /><g
   id="g4091"
   transform="translate(14,-4)"><path
     style="fill:#ffd8b9;fill-opacity:1;stroke:none"
     d="m 414.15625,45.34375 c -2.5274,0.255139 -4.5,2.403125 -4.5,5 l 0,30.5 c 0,2.77 2.23,5 5,5 l 11.34375,0 c 0.16235,0 0.31045,-0.01627 0.46875,-0.03125 l 0,-29.8125 4.53125,0 3.15625,0 c 2.77,0 5,-2.23 5,-5 l 0,-0.65625 c 0,-2.77 -2.23,-5 -5,-5 l -7.65625,0 -0.5,0 -6.84375,0 -4.5,0 c -0.17313,0 -0.33151,-0.01701 -0.5,0 z"
     transform="translate(176,76)"
     id="rect4085"
     inkscape:connector-curvature="0" /></g><path
   style="opacity:0.05309735;fill:#ffffff;fill-opacity:1;stroke:none"
   d="m 626.5,93.000008 c 44.16667,0 132.5,0 132.5,0 L 626.5,180.99999 c 0,0 0,-58.66665 0,-87.999982 z"
   id="rect3830"
   inkscape:connector-curvature="0"
   sodipodi:nodetypes="cccc" /></svg>